<mxfile host="app.diagrams.net" modified="2023-05-30T21:05:50.511Z" agent="Mozilla/5.0 (Windows NT 10.0; Win64; x64) AppleWebKit/537.36 (KHTML, like Gecko) Chrome/113.0.0.0 Safari/537.36" etag="KrodLBFPmzQt1mtfp_RU" version="21.3.5" type="device">
  <diagram name="Page-1" id="aC5G5Cn46bK_KPVKWmmm">
    <mxGraphModel dx="1434" dy="796" grid="1" gridSize="10" guides="1" tooltips="1" connect="1" arrows="1" fold="1" page="1" pageScale="1" pageWidth="850" pageHeight="1100" math="0" shadow="0">
      <root>
        <mxCell id="0" />
        <mxCell id="1" parent="0" />
        <mxCell id="Oqvf46iynKWTlTi0U0T1-29" value="" style="rounded=0;whiteSpace=wrap;html=1;" vertex="1" parent="1">
          <mxGeometry x="100" y="60" width="540" height="250" as="geometry" />
        </mxCell>
        <mxCell id="Oqvf46iynKWTlTi0U0T1-28" style="edgeStyle=orthogonalEdgeStyle;rounded=0;orthogonalLoop=1;jettySize=auto;html=1;entryX=0;entryY=0.5;entryDx=0;entryDy=0;" edge="1" parent="1" source="Oqvf46iynKWTlTi0U0T1-1" target="Oqvf46iynKWTlTi0U0T1-8">
          <mxGeometry relative="1" as="geometry" />
        </mxCell>
        <mxCell id="Oqvf46iynKWTlTi0U0T1-1" value="Client" style="swimlane;fontStyle=0;childLayout=stackLayout;horizontal=1;startSize=26;fillColor=none;horizontalStack=0;resizeParent=1;resizeParentMax=0;resizeLast=0;collapsible=1;marginBottom=0;whiteSpace=wrap;html=1;" vertex="1" parent="1">
          <mxGeometry x="120" y="113" width="140" height="52" as="geometry" />
        </mxCell>
        <mxCell id="Oqvf46iynKWTlTi0U0T1-5" value="Handler" style="swimlane;fontStyle=1;align=center;verticalAlign=top;childLayout=stackLayout;horizontal=1;startSize=26;horizontalStack=0;resizeParent=1;resizeParentMax=0;resizeLast=0;collapsible=1;marginBottom=0;whiteSpace=wrap;html=1;" vertex="1" parent="1">
          <mxGeometry x="345" y="100" width="165" height="52" as="geometry" />
        </mxCell>
        <mxCell id="Oqvf46iynKWTlTi0U0T1-25" style="edgeStyle=orthogonalEdgeStyle;rounded=0;orthogonalLoop=1;jettySize=auto;html=1;exitX=1;exitY=0.5;exitDx=0;exitDy=0;entryX=0.5;entryY=0;entryDx=0;entryDy=0;startArrow=diamond;startFill=0;" edge="1" parent="Oqvf46iynKWTlTi0U0T1-5" source="Oqvf46iynKWTlTi0U0T1-8" target="Oqvf46iynKWTlTi0U0T1-5">
          <mxGeometry relative="1" as="geometry" />
        </mxCell>
        <mxCell id="Oqvf46iynKWTlTi0U0T1-26" value="Successor" style="edgeLabel;html=1;align=center;verticalAlign=middle;resizable=0;points=[];" vertex="1" connectable="0" parent="Oqvf46iynKWTlTi0U0T1-25">
          <mxGeometry x="-0.335" y="-3" relative="1" as="geometry">
            <mxPoint x="17" as="offset" />
          </mxGeometry>
        </mxCell>
        <mxCell id="Oqvf46iynKWTlTi0U0T1-8" value="+ Handle(Request request)" style="text;strokeColor=none;fillColor=none;align=left;verticalAlign=top;spacingLeft=4;spacingRight=4;overflow=hidden;rotatable=0;points=[[0,0.5],[1,0.5]];portConstraint=eastwest;whiteSpace=wrap;html=1;" vertex="1" parent="Oqvf46iynKWTlTi0U0T1-5">
          <mxGeometry y="26" width="165" height="26" as="geometry" />
        </mxCell>
        <mxCell id="Oqvf46iynKWTlTi0U0T1-22" style="edgeStyle=orthogonalEdgeStyle;rounded=0;orthogonalLoop=1;jettySize=auto;html=1;entryX=0.267;entryY=1.038;entryDx=0;entryDy=0;entryPerimeter=0;endArrow=block;endFill=0;" edge="1" parent="1" source="Oqvf46iynKWTlTi0U0T1-9" target="Oqvf46iynKWTlTi0U0T1-8">
          <mxGeometry relative="1" as="geometry" />
        </mxCell>
        <mxCell id="Oqvf46iynKWTlTi0U0T1-9" value="ConcreteHandler1" style="swimlane;fontStyle=1;align=center;verticalAlign=top;childLayout=stackLayout;horizontal=1;startSize=26;horizontalStack=0;resizeParent=1;resizeParentMax=0;resizeLast=0;collapsible=1;marginBottom=0;whiteSpace=wrap;html=1;" vertex="1" parent="1">
          <mxGeometry x="265" y="240" width="160" height="52" as="geometry" />
        </mxCell>
        <mxCell id="Oqvf46iynKWTlTi0U0T1-12" value="+ Handle(Request request)" style="text;strokeColor=none;fillColor=none;align=left;verticalAlign=top;spacingLeft=4;spacingRight=4;overflow=hidden;rotatable=0;points=[[0,0.5],[1,0.5]];portConstraint=eastwest;whiteSpace=wrap;html=1;" vertex="1" parent="Oqvf46iynKWTlTi0U0T1-9">
          <mxGeometry y="26" width="160" height="26" as="geometry" />
        </mxCell>
        <mxCell id="Oqvf46iynKWTlTi0U0T1-27" style="edgeStyle=orthogonalEdgeStyle;rounded=0;orthogonalLoop=1;jettySize=auto;html=1;entryX=0.618;entryY=1.038;entryDx=0;entryDy=0;entryPerimeter=0;endArrow=block;endFill=0;" edge="1" parent="1" source="Oqvf46iynKWTlTi0U0T1-13" target="Oqvf46iynKWTlTi0U0T1-8">
          <mxGeometry relative="1" as="geometry" />
        </mxCell>
        <mxCell id="Oqvf46iynKWTlTi0U0T1-13" value="ConcreteHandler2" style="swimlane;fontStyle=1;align=center;verticalAlign=top;childLayout=stackLayout;horizontal=1;startSize=26;horizontalStack=0;resizeParent=1;resizeParentMax=0;resizeLast=0;collapsible=1;marginBottom=0;whiteSpace=wrap;html=1;" vertex="1" parent="1">
          <mxGeometry x="450" y="240" width="160" height="52" as="geometry" />
        </mxCell>
        <mxCell id="Oqvf46iynKWTlTi0U0T1-14" value="+ Handle(Request request)" style="text;strokeColor=none;fillColor=none;align=left;verticalAlign=top;spacingLeft=4;spacingRight=4;overflow=hidden;rotatable=0;points=[[0,0.5],[1,0.5]];portConstraint=eastwest;whiteSpace=wrap;html=1;" vertex="1" parent="Oqvf46iynKWTlTi0U0T1-13">
          <mxGeometry y="26" width="160" height="26" as="geometry" />
        </mxCell>
      </root>
    </mxGraphModel>
  </diagram>
</mxfile>
